<svg width="18" height="19" viewBox="0 0 18 19" fill="none" xmlns="http://www.w3.org/2000/svg">
<path d="M9 1.25C10.7902 1.25 12.5071 1.96116 13.773 3.22703C15.0388 4.4929 15.75 6.20979 15.75 8C15.75 10.7945 13.62 13.7225 9.45 16.85C9.32018 16.9474 9.16228 17 9 17C8.83772 17 8.67982 16.9474 8.55 16.85C4.38 13.7225 2.25 10.7945 2.25 8C2.25 6.20979 2.96116 4.4929 4.22703 3.22703C5.4929 1.96116 7.20979 1.25 9 1.25ZM9 2.75C7.60761 2.75 6.27226 3.30312 5.28769 4.28769C4.30312 5.27226 3.75 6.60761 3.75 8C3.75 10.0325 5.3385 12.377 8.586 14.9795L9 15.3065L9.414 14.9795C12.6615 12.377 14.25 10.0325 14.25 8C14.25 6.60761 13.6969 5.27226 12.7123 4.28769C11.7277 3.30312 10.3924 2.75 9 2.75ZM9 6.5C9.39782 6.5 9.77936 6.65804 10.0607 6.93934C10.342 7.22064 10.5 7.60218 10.5 8C10.5 8.39782 10.342 8.77936 10.0607 9.06066C9.77936 9.34196 9.39782 9.5 9 9.5C8.60218 9.5 8.22064 9.34196 7.93934 9.06066C7.65804 8.77936 7.5 8.39782 7.5 8C7.5 7.60218 7.65804 7.22064 7.93934 6.93934C8.22064 6.65804 8.60218 6.5 9 6.5Z" fill="black"/>
</svg>
